<svg xmlns="http://www.w3.org/2000/svg" viewBox="0 0 1440 264.438" >
  <path fill="#ffffff" fill-opacity="1" d="M -2.183 -0.293 C -9.244 -0.293 0 200 0 200 C 48.038 167.849 28 117 42 122.7 C 56.5 128 71 224 85 240 C 98.8 256 113 192 127 165.3 C 141.2 139 155 149 169 128 C 183.5 107 198 53 212 53.3 C 225.9 53 240 107 254 144 C 268.2 181 282 203 296 202.7 C 310.6 203 325 181 339 181.3 C 352.9 181 367 203 381 202.7 C 395.3 203 409 181 424 192 C 437.6 203 452 245 466 234.7 C 480 224 494 160 508 138.7 C 522.4 117 536 139 551 138.7 C 564.7 139 579 117 593 128 C 607.1 139 621 181 635 213.3 C 649.4 245 664 267 678 250.7 C 691.8 235 706 181 720 176 C 734.1 171 748 213 762 240 C 776.5 267 791 277 805 240 C 818.8 203 833 117 847 74.7 C 861.2 32 875 32 889 58.7 C 903.5 85 918 139 932 149.3 C 945.9 160 960 128 974 149.3 C 988.2 171 1002 245 1016 240 C 1030.6 235 1045 149 1059 106.7 C 1072.9 64 1087 64 1101 64 C 1115.3 64 1129 64 1144 96 C 1157.6 128 1172 192 1186 192 C 1200 192 1214 128 1228 133.3 C 1242.4 139 1256 213 1271 213.3 C 1284.7 213 1299 139 1313 117.3 C 1327.1 96 1341 128 1355 128 C 1369.4 128 1384 96 1398 122.7 C 1411.8 149 1400 166.751 1440 200 L 1443.367 0 L 1428.836 0.492 C 1421.836 0.492 1412 0 1398 0 C 1383.5 0 1369 0 1355 0 C 1341.2 0 1327 0 1313 0 C 1298.8 0 1285 0 1271 0 C 1256.5 0 1242 0 1228 0 C 1214.1 0 1200 0 1186 0 C 1171.8 0 1158 0 1144 0 C 1129.4 0 1115 0 1101 0 C 1087.1 0 1073 0 1059 0 C 1044.7 0 1031 0 1016 0 C 1002.4 0 988 0 974 0 C 960 0 946 0 932 0 C 917.6 0 904 0 889 0 C 875.3 0 861 0 847 0 C 832.9 0 819 0 805 0 C 790.6 0 776 0 762 0 C 748.2 0 734 0 720 0 C 705.9 0 692 0 678 0 C 663.5 0 649 0 635 0 C 621.2 0 607 0 593 0 C 578.8 0 565 0 551 0 C 536.5 0 522 0 508 0 C 494.1 0 480 0 466 0 C 451.8 0 438 0 424 0 C 409.4 0 395 0 381 0 C 367.1 0 353 0 339 0 C 324.7 0 311 0 296 0 C 282.4 0 268 0 254 0 C 240 0 226 0 212 0 C 197.6 0 184 0 169 0 C 155.3 0 141 0 127 0 C 112.9 0 99 0 85 0 C 70.6 0 56 0 42 0 C 28.2 0 14 0 7 0 L -2.183 -0.293 Z"></path>
</svg>