<svg 
 xmlns="http://www.w3.org/2000/svg"
 xmlns:xlink="http://www.w3.org/1999/xlink"
  viewBox="0 0 720 300">
<path fill-rule="evenodd"  stroke="rgb(0, 0, 0)" stroke-width="0px" stroke-linecap="butt" stroke-linejoin="miter" fill="rgb(255, 255, 255)"
 d="M-0.000,0.000 L720.000,0.000 C720.333,29.000 720.667,58.000 721.000,87.000 C709.667,109.595 697.295,124.052 684.000,124.000 C659.633,123.905 649.538,75.144 626.000,75.000 C593.195,74.799 578.139,169.240 541.000,172.000 C503.302,174.802 474.507,81.297 441.000,86.000 C414.530,89.715 410.082,152.219 383.000,155.000 C374.648,155.858 356.960,151.848 348.000,142.000 C334.865,170.905 316.802,222.449 300.000,224.000 C266.888,227.056 257.637,90.761 219.000,94.000 C188.614,96.547 175.961,183.686 150.000,183.000 C130.322,182.480 122.719,132.041 97.000,130.000 C86.659,129.179 80.102,137.283 71.000,139.000 C49.476,143.060 25.201,124.737 -0.000,93.000 C-0.000,62.000 -0.000,31.000 -0.000,0.000 Z"/>
</svg>