<svg xmlns="http://www.w3.org/2000/svg" viewBox="0 0 1440 320"><path fill="#ffffff" fill-opacity="1" d="M0,288L7.1,245.3C14.1,203,28,117,42,122.7C56.5,128,71,224,85,240C98.8,256,113,192,127,165.3C141.2,139,155,149,169,128C183.5,107,198,53,212,53.3C225.9,53,240,107,254,144C268.2,181,282,203,296,202.7C310.6,203,325,181,339,181.3C352.9,181,367,203,381,202.7C395.3,203,409,181,424,192C437.6,203,452,245,466,234.7C480,224,494,160,508,138.7C522.4,117,536,139,551,138.7C564.7,139,579,117,593,128C607.1,139,621,181,635,213.3C649.4,245,664,267,678,250.7C691.8,235,706,181,720,176C734.1,171,748,213,762,240C776.5,267,791,277,805,240C818.8,203,833,117,847,74.7C861.2,32,875,32,889,58.7C903.5,85,918,139,932,149.3C945.9,160,960,128,974,149.3C988.2,171,1002,245,1016,240C1030.6,235,1045,149,1059,106.7C1072.9,64,1087,64,1101,64C1115.3,64,1129,64,1144,96C1157.6,128,1172,192,1186,192C1200,192,1214,128,1228,133.3C1242.4,139,1256,213,1271,213.3C1284.7,213,1299,139,1313,117.3C1327.1,96,1341,128,1355,128C1369.4,128,1384,96,1398,122.7C1411.8,149,1426,235,1433,277.3L1440,320L1440,0L1432.9,0C1425.9,0,1412,0,1398,0C1383.5,0,1369,0,1355,0C1341.2,0,1327,0,1313,0C1298.8,0,1285,0,1271,0C1256.5,0,1242,0,1228,0C1214.1,0,1200,0,1186,0C1171.8,0,1158,0,1144,0C1129.4,0,1115,0,1101,0C1087.1,0,1073,0,1059,0C1044.7,0,1031,0,1016,0C1002.4,0,988,0,974,0C960,0,946,0,932,0C917.6,0,904,0,889,0C875.3,0,861,0,847,0C832.9,0,819,0,805,0C790.6,0,776,0,762,0C748.2,0,734,0,720,0C705.9,0,692,0,678,0C663.5,0,649,0,635,0C621.2,0,607,0,593,0C578.8,0,565,0,551,0C536.5,0,522,0,508,0C494.1,0,480,0,466,0C451.8,0,438,0,424,0C409.4,0,395,0,381,0C367.1,0,353,0,339,0C324.7,0,311,0,296,0C282.4,0,268,0,254,0C240,0,226,0,212,0C197.6,0,184,0,169,0C155.3,0,141,0,127,0C112.9,0,99,0,85,0C70.6,0,56,0,42,0C28.2,0,14,0,7,0L0,0Z"></path></svg>